<?xml version="1.0" encoding="UTF-8" standalone="no"?><svg xmlns="http://www.w3.org/2000/svg" xmlns:xlink="http://www.w3.org/1999/xlink" contentScriptType="application/ecmascript" contentStyleType="text/css" height="191px" preserveAspectRatio="none" style="width:1022px;height:191px;" version="1.1" viewBox="0 0 1022 191" width="1022px" zoomAndPan="magnify"><defs><filter height="300%" id="fgm4ts1wtn9ny" width="300%" x="-1" y="-1"><feGaussianBlur result="blurOut" stdDeviation="2.0"/><feColorMatrix in="blurOut" result="blurOut2" type="matrix" values="0 0 0 0 0 0 0 0 0 0 0 0 0 0 0 0 0 0 .4 0"/><feOffset dx="4.0" dy="4.0" in="blurOut2" result="blurOut3"/><feBlend in="SourceGraphic" in2="blurOut3" mode="normal"/></filter></defs><g><rect fill="#FEFECE" filter="url(#fgm4ts1wtn9ny)" height="33.9688" rx="12.5" ry="12.5" style="stroke: #A80036; stroke-width: 1.5;" width="40" x="530" y="78.9219"/><text fill="#000000" font-family="sans-serif" font-size="12" lengthAdjust="spacingAndGlyphs" textLength="20" x="540" y="100.0605">DW</text><rect fill="#FEFECE" filter="url(#fgm4ts1wtn9ny)" height="33.9688" rx="12.5" ry="12.5" style="stroke: #A80036; stroke-width: 1.5;" width="45" x="620" y="51.9375"/><text fill="#000000" font-family="sans-serif" font-size="12" lengthAdjust="spacingAndGlyphs" textLength="25" x="630" y="73.0762">PHP</text><text fill="#000000" font-family="sans-serif" font-size="12" lengthAdjust="spacingAndGlyphs" textLength="148" x="718" y="41.1387">Estrutura da linguagem</text><path d="M665,68.9219 L675,68.9219 C690,68.9219 690,36.9844 705,36.9844 L715,36.9844 " fill="none" style="stroke: #A80036; stroke-width: 1.0;"/><text fill="#000000" font-family="sans-serif" font-size="12" lengthAdjust="spacingAndGlyphs" textLength="292" x="718" y="57.1074">Execução de script e manipulação de arquivos</text><path d="M665,68.9219 L675,68.9219 C690,68.9219 690,52.9531 705,52.9531 L715,52.9531 " fill="none" style="stroke: #A80036; stroke-width: 1.0;"/><text fill="#000000" font-family="sans-serif" font-size="12" lengthAdjust="spacingAndGlyphs" textLength="156" x="718" y="73.0762">Manipulando GET e POST</text><path d="M665,68.9219 L675,68.9219 C690,68.9219 690,68.9219 705,68.9219 L715,68.9219 " fill="none" style="stroke: #A80036; stroke-width: 1.0;"/><text fill="#000000" font-family="sans-serif" font-size="12" lengthAdjust="spacingAndGlyphs" textLength="46" x="718" y="89.0449">Sessão</text><path d="M665,68.9219 L675,68.9219 C690,68.9219 690,84.8906 705,84.8906 L715,84.8906 " fill="none" style="stroke: #A80036; stroke-width: 1.0;"/><text fill="#000000" font-family="sans-serif" font-size="12" lengthAdjust="spacingAndGlyphs" textLength="140" x="718" y="105.0137">Manipulação de e-mail</text><path d="M665,68.9219 L675,68.9219 C690,68.9219 690,100.8594 705,100.8594 L715,100.8594 " fill="none" style="stroke: #A80036; stroke-width: 1.0;"/><path d="M570,95.9063 L580,95.9063 C595,95.9063 595,68.9219 610,68.9219 L620,68.9219 " fill="none" style="stroke: #A80036; stroke-width: 1.0;"/><rect fill="#FEFECE" filter="url(#fgm4ts1wtn9ny)" height="33.9688" rx="12.5" ry="12.5" style="stroke: #A80036; stroke-width: 1.5;" width="59" x="620" y="118.8438"/><text fill="#000000" font-family="sans-serif" font-size="12" lengthAdjust="spacingAndGlyphs" textLength="39" x="630" y="139.9824">MySQL</text><text fill="#000000" font-family="sans-serif" font-size="12" lengthAdjust="spacingAndGlyphs" textLength="135" x="732" y="131.998">Fundamentos de BDR</text><path d="M679,135.8281 L689,135.8281 C704,135.8281 704,127.8438 719,127.8438 L729,127.8438 " fill="none" style="stroke: #A80036; stroke-width: 1.0;"/><text fill="#000000" font-family="sans-serif" font-size="12" lengthAdjust="spacingAndGlyphs" textLength="179" x="732" y="147.9668">SQL (criação e manipulação)</text><path d="M679,135.8281 L689,135.8281 C704,135.8281 704,143.8125 719,143.8125 L729,143.8125 " fill="none" style="stroke: #A80036; stroke-width: 1.0;"/><path d="M570,95.9063 L580,95.9063 C595,95.9063 595,135.8281 610,135.8281 L620,135.8281 " fill="none" style="stroke: #A80036; stroke-width: 1.0;"/><rect fill="#FEFECE" filter="url(#fgm4ts1wtn9ny)" height="33.9688" rx="12.5" ry="12.5" style="stroke: #A80036; stroke-width: 1.5;" width="130" x="350" y="20"/><text fill="#000000" font-family="sans-serif" font-size="12" lengthAdjust="spacingAndGlyphs" textLength="110" x="360" y="41.1387">Estrutura da Web</text><text fill="#000000" font-family="sans-serif" font-size="12" lengthAdjust="spacingAndGlyphs" textLength="213" x="84" y="33.1543">Função do cliente e servidor HTTP</text><path d="M350,36.9844 L340,36.9844 C325,36.9844 325,29 310,29 L300,29 " fill="none" style="stroke: #A80036; stroke-width: 1.0;"/><text fill="#000000" font-family="sans-serif" font-size="12" lengthAdjust="spacingAndGlyphs" textLength="287" x="10" y="49.123">Componentes para construir um sistema Web</text><path d="M350,36.9844 L340,36.9844 C325,36.9844 325,44.9688 310,44.9688 L300,44.9688 " fill="none" style="stroke: #A80036; stroke-width: 1.0;"/><path d="M530,95.9063 L520,95.9063 C505,95.9063 505,36.9844 490,36.9844 L480,36.9844 " fill="none" style="stroke: #A80036; stroke-width: 1.0;"/><rect fill="#FEFECE" filter="url(#fgm4ts1wtn9ny)" height="33.9688" rx="12.5" ry="12.5" style="stroke: #A80036; stroke-width: 1.5;" width="94" x="386" y="73.9688"/><text fill="#000000" font-family="sans-serif" font-size="12" lengthAdjust="spacingAndGlyphs" textLength="74" x="396" y="95.1074">HTML &amp; CSS</text><text fill="#000000" font-family="sans-serif" font-size="12" lengthAdjust="spacingAndGlyphs" textLength="65" x="268" y="79.1387">Hipertexto</text><path d="M386,90.9531 L376,90.9531 C361,90.9531 361,74.9844 346,74.9844 L336,74.9844 " fill="none" style="stroke: #A80036; stroke-width: 1.0;"/><text fill="#000000" font-family="sans-serif" font-size="12" lengthAdjust="spacingAndGlyphs" textLength="92" x="241" y="95.1074">Folha de estilo</text><path d="M386,90.9531 L376,90.9531 C361,90.9531 361,90.9531 346,90.9531 L336,90.9531 " fill="none" style="stroke: #A80036; stroke-width: 1.0;"/><text fill="#000000" font-family="sans-serif" font-size="12" lengthAdjust="spacingAndGlyphs" textLength="113" x="220" y="111.0762">Extenções do CSS</text><path d="M386,90.9531 L376,90.9531 C361,90.9531 361,106.9219 346,106.9219 L336,106.9219 " fill="none" style="stroke: #A80036; stroke-width: 1.0;"/><path d="M530,95.9063 L520,95.9063 C505,95.9063 505,90.9531 490,90.9531 L480,90.9531 " fill="none" style="stroke: #A80036; stroke-width: 1.0;"/><rect fill="#FEFECE" filter="url(#fgm4ts1wtn9ny)" height="33.9688" rx="12.5" ry="12.5" style="stroke: #A80036; stroke-width: 1.5;" width="80" x="400" y="132.8906"/><text fill="#000000" font-family="sans-serif" font-size="12" lengthAdjust="spacingAndGlyphs" textLength="60" x="410" y="154.0293">Javascript</text><text fill="#000000" font-family="sans-serif" font-size="12" lengthAdjust="spacingAndGlyphs" textLength="148" x="199" y="130.0762">Estrutura da linguagem</text><path d="M400,149.875 L390,149.875 C375,149.875 375,125.9219 360,125.9219 L350,125.9219 " fill="none" style="stroke: #A80036; stroke-width: 1.0;"/><text fill="#000000" font-family="sans-serif" font-size="12" lengthAdjust="spacingAndGlyphs" textLength="131" x="216" y="146.0449">Manipulação do DOM</text><path d="M400,149.875 L390,149.875 C375,149.875 375,141.8906 360,141.8906 L350,141.8906 " fill="none" style="stroke: #A80036; stroke-width: 1.0;"/><text fill="#000000" font-family="sans-serif" font-size="12" lengthAdjust="spacingAndGlyphs" textLength="26" x="321" y="162.0137">AJAX</text><path d="M400,149.875 L390,149.875 C375,149.875 375,157.8594 360,157.8594 L350,157.8594 " fill="none" style="stroke: #A80036; stroke-width: 1.0;"/><text fill="#000000" font-family="sans-serif" font-size="12" lengthAdjust="spacingAndGlyphs" textLength="150" x="197" y="177.9824">Extenção da Linguagem</text><path d="M400,149.875 L390,149.875 C375,149.875 375,173.8281 360,173.8281 L350,173.8281 " fill="none" style="stroke: #A80036; stroke-width: 1.0;"/><path d="M530,95.9063 L520,95.9063 C505,95.9063 505,149.875 490,149.875 L480,149.875 " fill="none" style="stroke: #A80036; stroke-width: 1.0;"/><!--
--></g></svg>